# xmcd CD database file
#
# Track frame offsets:
#	150
#	14780
#	25070
#	37858
#	56801
#	71894
#	88936
#	105648
#	118699
#	142364
#	155997
#	171480
#	182460
#	196865
#	209134
#	219105
#	235488
#	249484
#	264632
#	276779
#	290199
#	299836
#	319056
#
# Disc length: 4473 seconds
#
# Revision: 0
# Processed by: cddbd v1.4PL0 Copyright (c) Steve Scherf et al.
# Submitted via: CDex 1.51
#
DISCID=81117717
DTITLE=Various Artist - Best of ceske country
DYEAR=1900
DGENRE=Country
TTITLE0=Michal Tucny - Posledni kovboj
TTITLE1=Rangers - Ta zem je tva zem
TTITLE2=Pavel Bobek - Oh, Ruby, nechtej mi lasku brat
TTITLE3=Mirek Hoffman - Oranzovy expres
TTITLE4=Vera Marinova - Az na vrcholky hor
TTITLE5=Wabi Danek - Ranni dest
TTITLE6=Petr Spaleny - Hrac
TTITLE7=Honza Vycital - Pivni dzip
TTITLE8=Mirek Cerny - Zatim co ty spis
TTITLE9=Greenhorns - T jako Texas
TTITLE10=Tucny, Linka - El Paso
TTITLE11=Matuska, Blechova and KTO - Kvete mak a slunce pali
TTITLE12=Petr Kocman - Asfaltovy Blues
TTITLE13=Vrata Vyskocil - Jedy dal
TTITLE14=Mustangove - Aljaska
TTITLE15=Plavci - Vysocina
TTITLE16=Karel Zich - Jak jdem tim zdejsim svetem
TTITLE17=Vit Tucny - Usta do podkovy
TTITLE18=Jiri Grossman - Sve banjo odhazuji v dal
TTITLE19=Rangers - Pole s bavlnou
TTITLE20=Urbankova, Grossman - Drahy muj
TTITLE21=Michal Tucny - Vsichni jsou uz v Mexiku
TTITLE22=Pavel Zalman Lohonka - Tulacka ukolebavka
EXTD=
EXTT0=
EXTT1=
EXTT2=
EXTT3=
EXTT4=
EXTT5=
EXTT6=
EXTT7=
EXTT8=
EXTT9=
EXTT10=
EXTT11=
EXTT12=
EXTT13=
EXTT14=
EXTT15=
EXTT16=
EXTT17=
EXTT18=
EXTT19=
EXTT20=
EXTT21=
EXTT22=
PLAYORDER=
